<?xml version="1.0" encoding="UTF-8"?>
<svg width="457px" height="344px" viewBox="0 0 457 344" version="1.1" xmlns="http://www.w3.org/2000/svg" xmlns:xlink="http://www.w3.org/1999/xlink">
    <!-- Generator: Sketch 52.4 (67378) - http://www.bohemiancoding.com/sketch -->
    <title>image-4-3</title>
    <desc>Created with Sketch.</desc>
    <g id="Page-1" stroke="none" stroke-width="1" fill="none" fill-rule="evenodd">
        <g id="image-4-3">
            <g id="Group">
                <rect id="Background" fill="#F2F5F7" x="0" y="0" width="457" height="344"></rect>
                <rect id="Border" x="0.5" y="0.5" width="456" height="343"></rect>
            </g>
            <g id="Cross-lines" transform="translate(12.000000, 11.000000)" stroke="#C2D1D9">
                <path d="M0,0 L432.459305,321.33927" id="Path-3"></path>
                <path d="M-9.99999997e-07,0 L432.459304,321.33927" id="Path-3" transform="translate(216.229651, 160.669635) scale(-1, 1) translate(-216.229651, -160.669635) "></path>
            </g>
            <g id="4:3" transform="translate(201.000000, 40.000000)" fill="#949FA6" font-family="HelveticaNeue, Helvetica Neue" font-size="40" font-weight="normal">
                <text>
                    <tspan x="0.2" y="38">4:3</tspan>
                </text>
            </g>
            <g id="Atoms-/-Media-/-image-/-Thumbnail-Copy" transform="translate(195.000000, 144.000000)">
                <rect id="background-copy" fill="#F2F5F7" x="0" y="0" width="68" height="56" rx="4"></rect>
                <path d="M4,4 L4,52 L64,52 L64,4 L4,4 Z M4,0 L64,0 C66.209139,0 68,1.790861 68,4 L68,52 C68,54.209139 66.209139,56 64,56 L4,56 C1.790861,56 0,54.209139 0,52 L0,4 C0,1.790861 1.790861,0 4,0 Z" id="Border-Copy" fill="#C2D1D9" fill-rule="nonzero"></path>
                <path d="M18.5,24 C14.3578644,24 11,20.6421356 11,16.5 C11,12.3578644 14.3578644,9 18.5,9 C22.6421356,9 26,12.3578644 26,16.5 C26,20.6421356 22.6421356,24 18.5,24 Z M18.5,20 C20.4329966,20 22,18.4329966 22,16.5 C22,14.5670034 20.4329966,13 18.5,13 C16.5670034,13 15,14.5670034 15,16.5 C15,18.4329966 16.5670034,20 18.5,20 Z" id="Oval-2" fill="#C2D1D9" fill-rule="nonzero"></path>
                <path d="M14.4080878,47.4203129 C13.6236707,48.1979783 12.3573526,48.192505 11.5796871,47.4080878 C10.8020217,46.6236707 10.807495,45.3573526 11.5919122,44.5796871 L28.0412661,28.2719172 L37.3125607,36.3361058 C38.1459773,37.061013 38.2339415,38.3242841 37.5090343,39.1577007 C36.784127,39.9911173 35.5208559,40.0790816 34.6874393,39.3541743 L28.2191938,33.7280828 L14.4080878,47.4203129 Z" id="Path-4" fill="#C2D1D9"></path>
                <path d="M29.4142766,47.4141505 C28.6332628,48.1952339 27.3669329,48.1952904 26.5858495,47.4142766 C25.8047661,46.6332628 25.8047096,45.3669329 26.5857234,44.5858495 L52.9083918,18.2608342 L67.3190784,30.9052264 C68.1493503,31.6337332 68.2318472,32.8973731 67.5033404,33.7276451 C66.7748335,34.5579171 65.5111936,34.640414 64.6809216,33.9119071 L53.0871507,23.7391658 L29.4142766,47.4141505 Z" id="Path-4" fill="#C2D1D9"></path>
            </g>
        </g>
    </g>
</svg>