<?xml version="1.0" encoding="UTF-8"?>
<svg width="512px" height="560px" viewBox="0 0 512 560" version="1.1" xmlns="http://www.w3.org/2000/svg" xmlns:xlink="http://www.w3.org/1999/xlink">
    <title>logo-alba</title>
    <g id="Page-1" stroke="none" stroke-width="1" fill="none" fill-rule="evenodd">
        <g id="logo-alba" fill-rule="nonzero">
            <g id="_282248280" transform="translate(12.012208, 12.197301)" fill="#FFFFFF">
                <g id="g11" transform="translate(0.000000, -0.000000)">
                    <path d="M115.412345,36.610667 C155.263629,11.8894824 202.355832,-1.22563898 249.285499,0.0902630645 C300.138105,1.08792025 350.572699,18.5123991 391.054001,49.3328379 C424.238492,74.4219183 450.812297,108.148199 467.463861,146.271455 C486.67841,189.92 492.478683,239.299626 483.990621,286.228612 C479.893195,309.103893 472.546552,331.392425 462.199981,352.203379 C456.038423,364.78246 448.510956,376.631403 440.41598,388.037886 C448.866245,389.915097 457.217147,392.222476 465.686064,394.006128 C465.966788,422.138593 465.767247,450.283265 465.79228,478.421726 C458.514186,480.124454 451.267443,481.951577 444.014275,483.729148 C442.405354,479.59411 440.871019,475.434553 439.580254,471.187755 C443.93335,470.189854 448.27381,469.142122 452.595555,468.031925 C452.45848,446.865667 452.658021,425.693071 452.495913,404.526856 C438.987455,401.33991 425.52294,397.966105 412.064721,394.592277 C410.380677,389.596903 408.491053,384.676415 406.782232,379.699757 C408.940202,380.09881 411.073118,380.635193 413.206055,381.171576 C417.808523,382.281516 422.342444,383.709843 427.00104,384.582835 C429.159011,382.905161 430.474831,380.410622 432.146219,378.284065 C462.90465,336.038577 477.872384,282.94209 475.190634,230.862135 C474.972377,227.843633 475.016127,224.775044 474.317647,221.812926 C473.463097,218.900639 471.89769,216.275109 470.58187,213.562081 C466.933593,206.396657 462.985876,199.361731 458.483071,192.688941 C447.793652,176.374668 434.709653,161.662776 420.078557,148.78471 C408.354042,138.388591 395.687756,128.977996 381.935943,121.431721 C378.275267,119.54845 374.246389,117.403155 369.993171,118.332274 C352.275267,121.500503 336.471828,131.49123 323.699518,143.87041 C319.258923,148.572409 314.587927,153.037718 310.153628,157.740232 C305.588592,163.009729 301.422639,168.60395 297.225313,174.160462 C296.240027,175.089602 296.738987,176.461524 296.901096,177.61547 C298.896958,188.454392 300.562029,199.38685 301.054671,210.412803 C301.241814,213.493534 300.667988,216.674141 301.67199,219.66761 C303.854737,227.313525 306.904412,234.828193 307.465838,242.842047 C307.809007,247.687693 306.941823,252.795342 304.023163,256.786476 C303.243736,256.749301 302.470369,256.724268 301.703341,256.692917 C300.424954,254.834658 299.177403,252.80168 297.013373,251.872304 C296.308554,254.105076 296.090553,256.462286 295.341984,258.682424 C293.483433,258.857164 291.681052,258.214824 289.997286,257.516336 C283.037327,251.76003 281.054121,242.492824 278.478373,234.285793 C276.994127,230.026339 276.71366,225.161977 273.676385,221.607093 C266.273615,211.96561 259.519514,201.837811 253.457576,191.304728 C252.522101,189.259094 249.927658,189.308904 248.038012,188.822609 C232.110112,186.907966 216.082077,185.51099 200.023054,185.616947 C198.307895,185.623157 196.636528,185.161746 194.940085,184.99964 C173.318186,184.481974 151.640187,185.117996 130.149137,187.674979 C118.730124,188.972315 107.31111,190.543774 96.1350444,193.268944 C90.8404132,194.684636 85.4332269,196.474606 81.1987468,200.091698 C75.7978992,204.600756 72.0310069,210.61249 68.1270398,216.368796 C62.4328336,224.937513 57.1880128,233.867874 53.4024041,243.459461 C45.1015915,265.985477 38.6780254,289.309386 35.9401689,313.201199 C35.6720988,316.169634 34.9923137,319.082178 34.7115983,322.050634 C34.5869204,329.278781 34.4622424,336.556479 35.5972419,343.728434 C35.8529194,345.119093 36.4765618,346.410091 37.1065257,347.669738 C43.8295107,360.934651 51.8556811,373.532084 60.9613187,385.287833 C65.6075373,384.115427 70.2163017,382.786741 74.8872969,381.714233 C76.5275824,381.346273 78.1491473,380.916104 79.7891844,380.560543 C78.648116,385.275198 76.5650023,389.696758 75.3364467,394.386616 C74.4882337,395.028956 73.5965212,395.677634 72.5300635,395.920664 C60.8240083,398.720934 49.1556,401.658254 37.4869989,404.589535 C37.4308541,425.76817 37.5618558,446.94702 37.5742463,468.125869 C41.2040637,468.998583 44.8399629,469.8344 48.4695233,470.713709 C47.1537033,474.892239 45.6130513,478.995905 44.1852115,483.136745 C37.4619695,481.814633 30.876295,479.931084 24.19706,478.409691 C24.1596316,450.283436 24.0971673,422.157181 24.2281669,394.03735 C32.1483778,392.29113 39.9815813,390.152173 47.8833758,388.306077 C36.6451653,372.833682 26.8849049,356.251175 19.4450019,338.614447 C7.05916172,309.596505 0.32983801,278.152763 0.0180200287,246.590387 C-0.592977038,197.004757 14.349655,147.313127 42.4013668,106.402385 C61.5289298,78.3947647 86.5933906,54.4905315 115.412302,36.6109668 L115.412345,36.610667 Z M170.474633,24.3186215 L170.474633,24.3186215 C126.843886,38.8742969 87.8408339,66.8135847 59.8949959,103.333774 C47.9957167,118.201262 38.5659906,134.95868 31.0197642,152.414244 C12.5846423,195.389313 7.50203705,243.989462 16.9751705,289.795916 C18.3473859,297.59762 20.8917723,305.106206 22.7877352,312.783194 C22.5942693,305.468063 21.4342341,298.13396 22.3509845,290.812448 C23.3924107,283.328638 23.5234124,275.738849 24.764624,268.280008 C24.9517662,267.082826 25.201122,265.810523 24.5089465,264.731697 L24.8642661,265.436503 C25.8371571,261.283006 26.036694,256.992202 26.7789433,252.788896 C30.7704105,226.009808 37.5495445,199.673351 46.5425199,174.147849 C50.6710405,163.128363 55.1177178,152.171107 61.1983719,142.061682 C62.4767614,140.078513 63.4248692,137.583996 65.7072586,136.536264 C68.925359,135.008297 72.5177437,134.602905 75.9665006,133.84829 C97.8502939,130.761499 120.002626,130.649224 141.992422,128.771992 C160.508726,128.378999 179.031113,128.453863 197.547248,127.998661 C207.301448,127.717943 217.086507,127.611985 226.771752,126.29619 C229.441082,125.93429 232.060323,125.28589 234.629754,124.468789 C234.523794,111.596868 233.089359,98.4629668 236.288743,85.8281658 C236.718919,83.4456657 237.062109,80.9825198 236.762669,78.5749865 C237.186785,77.6458676 237.691827,76.7228089 237.841537,75.6937928 C236.513318,72.4261799 234.710936,69.3578476 233.394859,66.0773434 C230.900294,60.7264081 228.967155,54.8830964 224.763769,50.5675159 C225.493365,50.4425855 226.353975,49.9375746 226.99001,50.5986307 C229.64694,52.8374844 230.66332,56.3051272 231.991796,59.3919186 C234.018752,64.6055246 236.500683,69.6570252 239.413283,74.4217684 C239.899608,74.4217684 240.866413,74.409134 241.346421,74.409134 C240.292587,72.1953135 238.633598,70.3492175 237.504921,68.1854848 C234.848247,63.2149085 233.363744,57.6707744 230.270576,52.9247472 C229.035682,51.0103614 227.208246,49.5820348 225.986008,47.6613104 C227.62628,47.3618972 229.334865,46.8692637 231.00651,47.2683171 C232.272499,47.5427186 232.690298,48.9336131 233.307616,49.9064812 C235.484303,54.2407778 238.003645,58.4003345 240.785252,62.3790912 C242.80589,65.3290673 245.356605,67.898449 247.152669,71.0105306 C247.545669,71.0727602 248.325097,71.2037508 248.718097,71.266216 C252.584889,72.3450416 256.557383,73.8540568 259.170542,77.0660355 C263.617219,82.441747 265.220081,89.4824975 269.092675,95.2200873 C269.897393,96.7854861 270.945145,98.2322717 272.180039,99.4858585 C274.799281,102.903435 276.800967,106.726146 279.245701,110.262315 C286.062268,107.649441 292.567016,104.181798 298.660048,100.184347 C305.757317,96.5234835 312.417858,92.0581964 319.097092,87.6864464 C332.399692,78.6688449 346.419337,69.9939133 362.147932,66.0028648 C366.020784,67.9359667 369.606851,70.4117684 373.286501,72.6943713 C383.763743,79.2485485 393.723288,86.6203409 403.184494,94.5715372 C408.05503,98.4756654 412.401808,102.990805 417.235148,106.925791 C417.721709,107.78662 418.470042,108.453758 419.156144,109.158563 C422.741955,112.638605 426.122163,116.317927 429.458879,120.034916 C437.1234,128.75334 444.551225,137.802313 450.089147,148.061167 C454.785176,156.979385 459.506239,165.891265 463.578889,175.120995 C464.607668,177.578081 465.54946,180.085255 466.927747,182.373918 C465.917427,176.773636 463.82824,171.441416 462.019542,166.059388 C454.174196,144.163592 443.073061,123.427374 429.090741,104.830648 C406.202817,74.1850131 375.543963,49.4325638 340.756803,33.5235329 C313.453403,20.8824961 283.636572,13.8414887 253.595315,12.4882831 C225.474734,11.3219485 197.154783,15.3631597 170.474974,24.3185572 L170.474633,24.3186215 Z M241.327619,79.7164914 L241.327619,79.7164914 C240.797801,80.8016555 240.036833,81.9055142 240.286184,83.1841342 C240.672868,86.6014536 242.331878,89.7757434 242.319479,93.2681838 C244.470876,90.1189272 243.148974,86.2274334 243.180089,82.7102167 C243.304765,81.3630714 242.337939,80.4212967 241.327619,79.7164914 Z" id="_282249240"></path>
                </g>
                <path d="M143.93188,364.665367 C177.004159,356.570824 210.026542,348.294946 243.06777,340.081448 C244.090488,339.738521 245.156956,339.87585 246.17991,340.131257 C265.855987,344.665348 285.345285,349.953818 305.046074,354.375356 C329.605622,360.711558 354.258323,366.667144 378.886397,372.735262 C380.78236,373.234234 382.771905,373.440089 384.549252,374.319377 C375.500128,374.631189 366.432266,374.263251 357.38312,374.481483 C356.628469,376.502083 355.923651,378.553798 355.250183,380.605491 C320.132167,371.78717 284.958474,363.21871 249.821827,354.462619 C247.751378,354.013734 245.624758,353.084359 243.485504,353.683206 C218.077939,359.632733 192.813851,366.168451 167.462402,372.348865 C155.743948,375.360792 143.950671,378.04247 132.263654,381.173267 L131.889367,381.272908 C131.427831,378.865888 130.39905,376.633116 129.507079,374.362912 C121.480651,374.413 113.441846,374.543991 105.41544,374.338136 C106.432083,373.914028 107.492224,373.589817 108.564757,373.346552 C115.755608,371.681513 122.921425,369.910259 130.062231,368.051765 C134.683394,366.910452 139.317214,365.825567 143.932081,364.665303 L143.93188,364.665367 Z" id="_282250104"></path>
                <path d="M92.131463,481.516184 L92.47439,481.584709 C102.459247,483.692829 112.263022,486.561603 122.241326,488.700559 C122.397363,488.737991 122.703114,488.812855 122.852575,488.850287 C133.223859,491.64424 143.732452,493.883072 154.116391,496.608242 C144.555651,498.136209 134.889208,498.984403 125.316111,500.449905 C122.447261,500.724285 119.522519,501.790733 116.672365,500.88639 C99.9149482,496.857567 83.1386012,492.885149 66.4557717,488.582203 C68.9566543,488.064536 71.526085,488.376348 74.0580829,488.338916 C79.4839642,488.338916 84.9159273,488.357547 90.3418085,488.320286 C91.4828769,486.274653 91.5579865,483.774053 92.1315551,481.516184 L92.131463,481.516184 Z" id="_282249408"></path>
                <path d="M335.735744,496.482562 C355.680209,491.487188 375.71194,486.79733 395.681268,481.901853 C396.286187,484.04081 396.897446,486.18634 397.471014,488.337931 C405.934192,488.312898 414.409491,488.387741 422.872369,488.288122 C423.17181,488.362707 423.770648,488.518753 424.076148,488.593595 C418.276218,490.289749 412.282829,491.268934 406.43917,492.828016 C395.20096,495.553422 384.006306,498.46573 372.724667,501.010057 C370.442021,501.64002 368.12828,500.873006 365.851951,500.623638 C355.836258,499.076955 345.733042,498.116465 335.735744,496.48254 L335.735744,496.482562 Z" id="_282246480"></path>
                <g id="g17" transform="translate(213.006444, 499.048961)">
                    <path d="M0.381333451,0.420880238 C6.5244325,0.358415043 12.6796736,-0.333991411 18.8227727,0.202391247 C21.6167783,0.439596241 24.5354383,1.71795921 26.0009892,4.21881551 C27.2108498,6.57602542 27.1359844,9.64435779 25.5394618,11.8146646 C24.5726354,13.2303354 23.0385792,14.0785515 21.6354946,15.0013532 C23.4626525,18.2881746 25.9511789,21.138018 27.9030125,24.3499967 C24.5167219,24.3998062 21.1114794,24.780165 17.7312705,24.4933862 C15.8540025,21.8676209 14.4509608,18.9302791 12.4801324,16.367236 C11.3077045,16.3486057 10.1476756,16.3421814 8.98156504,16.3486057 C8.98756113,19.2421982 9.00634174,22.1420866 8.98156504,25.0419963 C5.99409995,25.0546307 3.00083149,25.1294947 0.0133663902,25.1482107 C-0.0614990492,16.9037043 0.194169853,8.65917652 0.381333451,0.421030138 L0.381333451,0.420880238 Z M8.97524774,5.66560109 L8.97524774,5.66560109 C8.97524774,7.37413233 8.98145797,9.0831775 8.98145797,10.7919657 C11.3574078,10.7358177 13.76473,10.8357149 16.1159031,10.4176885 C18.1615755,10.1058764 18.8350432,6.66352381 16.7332217,5.92760372 C14.2325747,5.07309184 11.5506103,5.61553471 8.97511925,5.66560109 L8.97524774,5.66560109 Z" id="_282249816"></path>
                </g>
                <path d="M271.823936,499.384185 C274.729961,499.452967 277.636501,499.54629 280.536209,499.770861 C280.636108,505.976051 280.137148,512.175181 280.199593,518.386453 C284.920677,518.554875 289.641482,518.897802 294.362802,519.122351 C294.399978,521.211498 294.393917,523.306941 294.375222,525.408723 C286.523303,525.040784 278.684017,524.398423 270.83244,524.086611 C270.888589,515.842104 271.549658,507.622631 271.824043,499.384185 L271.823936,499.384185 Z" id="_282248784"></path>
                <path d="M156.28018,503.735548 C164.318985,502.899753 172.370446,502.132718 180.409294,501.272124 C180.471761,503.149335 180.540294,505.026546 180.584046,506.909838 C175.426233,507.446221 170.274994,508.088561 165.104781,508.518986 C165.104781,509.566461 165.104781,510.620511 165.117416,511.686959 C168.291766,511.437612 171.453739,511.013504 174.621772,510.633166 C174.709019,512.572585 174.802592,514.524403 174.821307,516.476478 C171.634557,516.738459 168.472606,517.218715 165.298256,517.530527 C165.32936,518.90247 165.366789,520.274392 165.404219,521.658969 C170.89231,521.284692 176.324273,520.361633 181.812642,519.956498 C181.881175,521.98318 182.043284,524.010098 182.192745,526.043097 C173.617783,526.935041 165.061044,527.964057 156.486017,528.818333 C156.34237,520.455213 155.987053,512.092351 156.280159,503.735463 L156.28018,503.735548 Z" id="_282244944"></path>
                <path d="M324.865757,502.913179 C327.928088,503.112781 330.977505,503.530807 334.039814,503.805187 C333.821557,512.087126 333.721679,520.369064 333.646814,528.650788 C330.503557,528.407759 327.397755,527.883775 324.267155,527.603313 C324.397912,519.371184 324.653838,511.145394 324.865757,502.913179 L324.865757,502.913179 Z" id="_282248232"></path>
                <path d="M366.793401,507.727068 C369.437676,508.176552 372.163155,508.363433 374.751281,509.105671 C378.742491,513.782894 382.733958,518.491489 386.345059,523.486585 C386.288653,519.252164 386.076734,515.005366 386.600492,510.795743 C389.488058,511.282038 392.400422,511.624965 395.26319,512.273643 C395.26319,520.680255 395.188068,529.087124 395.231818,537.499989 C392.631293,537.144406 389.993336,536.882425 387.461081,536.171281 C382.964593,531.120037 379.073282,525.550849 374.894673,520.237602 C374.757362,524.858678 374.670098,529.479775 374.495612,534.10085 C371.520546,533.658047 368.564689,533.096888 365.57748,532.772678 C365.889041,524.422214 366.319475,516.071472 366.793401,507.727068 L366.793401,507.727068 Z" id="_282249360"></path>
                <g id="g24" transform="translate(96.448666, 508.994126)">
                    <path d="M0.10426918,3.018007 C6.50305854,1.92046546 12.9079082,0.779410291 19.3688856,0.0933210234 C21.6454502,-0.174998791 24.1898473,0.0746906772 25.9798508,1.64606402 C27.2769545,2.76234297 27.5763841,4.63321519 27.3391682,6.25476198 C26.9588128,8.00729938 25.4806337,9.17338774 24.3269264,10.4332917 C26.2416036,11.1130638 28.411954,12.2730919 28.723772,14.5116672 C29.5532707,20.031025 24.3332437,24.1781829 19.4065796,25.0886073 C12.9951556,26.435774 6.50306283,27.3213793 0.0607804111,28.5001021 C-0.0702191176,20.0059919 0.0420640513,11.5121172 0.104277745,3.01807124 L0.10426918,3.018007 Z M8.78568352,7.09057927 L8.78568352,7.09057927 C8.79808257,8.28170082 8.82285926,9.47913956 8.88532351,10.6889771 C11.7541731,10.1088453 14.9598958,10.4580893 17.5417063,8.9053249 C18.8077032,8.44380625 18.4149551,6.94087266 17.816098,6.09899515 C14.7724838,5.43162189 11.7916144,6.76613286 8.78568352,7.09060069 L8.78568352,7.09057927 Z M9.29071687,16.2766034 L9.29071687,16.2766034 C8.42404233,17.542589 9.19714577,19.5507904 9.04742988,21.1037904 C12.047294,20.5547733 15.1407186,20.3554929 18.046744,19.3636518 C19.6807057,18.8088101 20.2110319,16.077066 18.6018511,15.1977779 C15.4773111,14.9357752 12.3156168,15.5406833 9.29071901,16.2766034 L9.29071687,16.2766034 Z" id="_282249048"></path>
                </g>
            </g>
            <g id="_282249696" transform="translate(-0.000000, 0.000000)" fill="#0000FF">
                <g id="g28" transform="translate(-0.000000, 0.000000)">
                    <path d="M130.305673,32.9807397 C171.778685,9.50050741 219.918491,-1.99291722 267.527856,0.283197145 C316.316096,2.59689342 364.455901,18.8365808 404.238444,47.2685021 C437.87821,71.122412 465.61804,103.240272 484.234394,140.041202 C504.446863,179.773306 514.131958,224.82491 511.60632,269.352936 C509.161565,312.926318 495.659446,355.926442 472.147994,392.733582 C478.353302,394.324014 484.55255,395.932905 490.776339,397.46721 C490.988515,432.316237 490.738907,467.165049 490.86384,502.014075 C466.759567,507.913771 442.643087,513.769738 418.526394,519.625684 C418.457867,533.083797 418.470245,546.541823 418.520398,560 L417.796605,560 C414.909296,558.696604 411.728607,558.397426 408.660217,557.792261 C378.843599,552.266843 348.727391,548.425416 318.498971,546.049254 C315.418181,545.843399 312.262547,545.282241 309.225272,546.130435 C292.311829,550.277593 275.417187,554.468522 258.472457,558.503405 C256.158717,559.226669 253.838895,558.285152 251.593681,557.773567 C237.118654,554.162791 222.612447,550.7141 208.125042,547.159451 C205.505801,546.591697 202.923736,545.562681 200.204592,545.743502 C170.699771,547.839224 141.306734,551.487431 112.17624,556.644889 C106.900069,557.761146 101.437012,558.172856 96.3353259,560 L95.8801136,560 C95.9549705,546.598271 96.0050443,533.189647 95.8553284,519.78779 C71.595157,513.863297 47.3037204,508.032384 23.087449,501.94555 C23.1375227,467.121578 23.0189158,432.303817 23.1435938,397.486055 C28.7814154,396.120194 34.3818042,394.610943 40.013544,393.251399 C28.3699552,374.704354 18.8218492,354.810356 12.1362327,333.937087 C5.0389623,312.147291 1.09756246,289.390431 -2.84217094e-14,266.515577 L-2.84217094e-14,245.430244 C1.07885467,225.049716 4.2157851,204.750134 9.87864035,185.130666 C17.1815338,159.436635 28.6442977,134.946295 43.5931442,112.819654 C65.7765277,79.9475856 95.7490434,52.4140752 130.305354,32.9813414 L130.305673,32.9807397 Z M127.424425,48.8086964 L127.424425,48.8086964 C98.6057274,66.6883681 73.5410096,90.5924943 54.4134894,118.600115 C26.3616491,159.510856 11.4191841,209.202487 12.0301427,258.788117 C12.3419628,290.350493 19.0712843,321.794235 31.4571246,350.812177 C38.8970703,368.448819 48.6573522,385.031412 59.8954984,400.503807 C51.9937468,402.349924 44.1605433,404.48886 36.2402895,406.23508 C36.10929,434.355125 36.1717542,462.481166 36.2091826,490.607421 C42.8884176,492.128813 49.4740922,494.012341 56.1973341,495.334475 C91.801247,392.758144 56.1973341,495.334475 91.801247,392.758144 C90.1612142,393.113705 88.5396537,393.543874 86.8993596,393.911834 C73.4784019,378.102572 62.3462365,360.353869 53.983193,341.370189 C52.4428024,338.027733 51.3700123,334.497861 49.810901,331.167547 C48.9566169,329.327768 48.3514361,327.382011 47.9523665,325.398843 C50.690223,301.507244 57.113789,278.183335 65.4146017,255.657105 C69.2002103,246.065432 74.4450098,237.135093 80.1392374,228.56644 C84.0432045,222.810134 87.8100754,216.7984 93.2109444,212.289342 C97.4454459,208.672228 102.852611,206.88228 108.147242,205.466588 C119.323222,202.74144 130.742214,201.169959 142.161335,199.872623 C163.652385,197.31564 185.330383,196.679618 206.952272,197.197284 C208.648715,197.35939 210.320082,197.820908 212.035241,197.814591 C228.094156,197.708634 244.122234,199.10561 260.050199,201.020253 C261.939845,201.506569 264.534309,201.456738 265.469763,203.502372 C271.53168,214.035541 278.28578,224.16334 285.688571,233.804737 C288.725847,237.359621 289.006314,242.224004 290.49056,246.483437 C293.066308,254.690511 295.049514,263.957717 302.009473,269.71398 C301.903513,273.686655 302.957326,277.553115 303.468942,281.469385 C306.873928,304.968248 310.011124,328.529212 311.339321,352.246285 C311.757099,356.306201 311.333111,360.453359 312.237364,364.457149 C316.908616,365.623495 321.598563,367.157522 326.4691,367.201271 C326.980459,360.977365 325.770855,354.821984 325.639841,348.610455 C324.517245,321.893682 320.987048,295.345439 316.496878,269.002772 L316.03535,268.984141 C318.954032,264.993007 319.821216,259.885358 319.478025,255.039712 C318.916599,247.025837 315.866924,239.511169 313.684177,231.865275 C312.680175,228.871807 313.254001,225.691178 313.066858,222.610468 C312.574215,211.584665 310.909145,200.652143 308.913283,189.813136 C308.751174,188.659189 308.252214,187.287246 309.2375,186.358127 C313.434825,180.801594 317.600779,175.207394 322.165815,169.937897 C326.600093,165.235383 331.271088,160.770075 335.711705,156.068075 C348.483972,143.688788 364.287561,133.697955 382.005358,130.529939 C386.258575,129.60082 390.287454,131.746094 393.94813,133.629386 C407.699857,141.175662 420.36625,150.586256 432.090743,160.982375 C446.721797,173.860356 459.805946,188.572419 470.495258,204.886606 C470.420392,206.507896 470.38296,208.148394 470.694778,209.750968 C473.800601,223.577041 475.191265,237.765013 475.253732,251.927931 C475.62778,277.833534 471.050089,303.758625 462.275606,328.111699 C459.768385,334.697248 457.429868,341.413788 453.980854,347.575486 C454.105787,345.854063 454.373855,344.151592 454.666978,342.455438 C457.12411,327.381839 456.394494,311.890749 453.23886,296.973196 C444.987857,258.513523 424.469844,223.315017 397.365814,195.076765 C381.96165,179.167863 363.582571,165.703348 342.640591,158.11994 C340.757027,157.496316 338.886098,156.585892 336.871777,156.535825 C335.437363,157.065891 334.408305,158.269647 333.341858,159.304723 C330.585286,162.204633 327.647909,164.91764 324.984897,167.898731 C333.360575,170.598846 341.817157,173.218294 349.700128,177.203368 C376.685521,190.443248 398.519633,212.5325 414.715708,237.58432 C428.29901,258.507291 438.196388,281.750233 444.314325,305.922572 C447.207973,317.110737 447.145742,328.847748 445.785937,340.260227 C444.49515,352.558333 441.588868,364.762773 436.649548,376.119575 C434.410651,381.595183 430.400489,386.010661 426.75853,390.569293 C426.059771,391.392454 425.623278,392.377721 425.218135,393.369562 C423.085198,392.83318 420.952282,392.296797 418.794312,391.897743 C420.503132,396.874401 422.392778,401.794911 424.076801,406.790264 C433.400332,432.265871 442.237537,457.922427 451.59242,483.385828 C452.883206,487.632626 454.417519,491.792182 456.026441,495.92722 C463.279501,494.149649 470.526245,492.322505 477.804446,490.619798 C477.779412,462.481337 477.978954,434.336452 477.69823,406.2042 C469.229248,404.420548 460.878347,402.113169 452.428146,400.235958 C460.5231,388.82954 468.050567,376.980575 474.212147,364.401451 C484.558632,343.590519 491.905274,321.301965 496.002787,298.426684 C504.490741,251.497698 498.690576,202.118073 479.476027,158.469527 C462.824591,120.346485 436.250658,86.6199905 403.066166,61.5309101 C362.584864,30.7105313 312.150271,13.2860182 261.297664,12.288331 C214.367998,10.9722834 167.276007,24.0874861 127.424508,48.8087392 L127.424425,48.8086964 Z M207.145838,198.999909 L207.145838,198.999909 C204.744834,201.001794 203.085845,203.708248 201.059124,206.053059 C190.775105,218.550959 182.561536,232.582886 175.352182,247.026329 C164.275824,269.926451 156.57387,294.317001 150.630526,319.013131 C147.499669,332.059791 145.466631,345.343164 143.626817,358.626815 C142.89089,365.804894 141.724786,373.007986 142.074034,380.248295 C134.93325,382.10679 127.767433,383.878043 120.57656,385.543082 C119.504027,385.786369 118.443887,386.11058 117.427244,386.534666 C125.453671,386.740521 133.492476,386.60953 141.518882,386.559443 C142.410847,388.829647 143.439628,391.062419 143.901171,393.469438 L144.275457,393.369798 C145.441814,397.467146 146.926071,401.470658 148.34785,405.487082 C156.985514,428.95468 165.086807,452.621644 173.699095,476.095452 C174.085774,446.690984 173.855133,417.273881 173.817704,387.869413 C173.948704,387.426353 174.216774,386.547044 174.347776,386.104241 C177.921208,387.008584 181.594776,386.634564 185.230654,386.572098 C196.587201,386.690433 207.950042,386.528349 219.313271,386.65934 C219.244488,409.584516 219.06998,432.515689 219.29464,455.440437 C228.343765,455.403262 237.398971,455.453071 246.448138,455.428016 C246.504544,432.49042 246.460773,409.559247 246.467197,386.621865 C261.596976,386.572056 276.732879,386.640495 291.869146,386.621865 C303.319275,386.372518 315.337191,387.176964 325.564804,392.839711 C332.961514,396.675057 338.131469,404.146232 339.753047,412.247092 C340.407798,417.248784 340.669784,422.41864 339.322613,427.339407 C337.900834,433.051964 334.539341,438.246619 329.786906,441.745376 C331.888728,443.10492 334.077536,444.377223 335.948722,446.05464 C339.765424,449.35992 342.297422,453.800452 344.224501,458.396751 C352.08882,436.606527 359.516623,414.641991 367.262327,392.802086 C367.935795,390.750392 368.640613,388.698677 369.395264,386.678077 C378.444388,386.459845 387.51225,386.827784 396.561396,386.515972 C394.784027,385.636684 392.794504,385.430829 390.898541,384.931857 C366.270467,378.863718 341.617766,372.908131 317.058218,366.571951 C297.357344,362.150391 277.868217,356.861943 258.192055,352.327852 C257.169079,352.072445 256.102611,351.935115 255.079914,352.278042 C222.038686,360.491455 189.016294,368.767312 155.944015,376.861962 C156.137481,368.586598 157.528158,360.397982 158.894048,352.253416 C162.823049,327.526235 168.136396,302.935891 176.399776,279.274923 C185.006346,254.329104 197.048996,230.132353 214.729562,210.344141 C217.891513,206.452647 222.263346,203.515306 224.589486,199.000188 C219.806214,198.469865 214.985252,198.962499 210.189324,198.594796 C209.179005,198.632228 207.987861,198.270585 207.145967,199.000188 L207.145838,198.999909 Z M98.4933008,392.721033 L98.4933008,392.721033 C96.6223736,397.442006 95.1318083,402.300051 93.4166702,407.077171 C84.2180719,433.638049 74.9256562,460.167662 65.6954713,486.715906 C64.822473,489.272888 63.7934394,491.792204 63.2818318,494.455401 C74.8321172,494.548981 86.3881845,494.511549 97.9445731,494.498893 C98.9422493,490.052558 99.9525687,485.605965 100.981613,481.171772 C112.456776,481.165347 123.932282,481.103246 135.407295,481.203143 C136.467435,485.73066 137.777184,490.18963 139.068227,494.654939 C150.643033,494.411652 162.218052,494.40557 173.786861,494.686032 C171.435688,487.221173 168.560499,479.936901 165.997407,472.54697 C156.443241,445.917567 146.876183,419.300584 137.328184,392.670967 C124.387492,392.833329 111.440503,392.746088 98.4934507,392.721033 L98.4933008,392.721033 Z M179.929596,392.914232 L179.929596,392.914232 C180.07931,426.778206 179.948312,460.641537 180.004453,494.505296 C202.162995,494.542728 224.327328,494.480263 246.491867,494.536668 C246.523218,483.5541 246.460752,472.578128 246.529278,461.59586 C235.378332,461.390006 224.221262,461.608495 213.064256,461.514936 C212.951979,438.583549 213.064256,415.646167 213.008128,392.708785 C201.981851,392.901983 190.955795,392.521646 179.929596,392.914382 L179.929596,392.914232 Z M252.647579,392.758465 L252.647579,392.758465 C252.659786,426.653275 252.640941,460.554295 252.659786,494.449105 C269.897703,494.592495 287.135363,494.474139 304.373045,494.511571 C313.440886,494.318093 322.89541,492.335182 330.279571,486.80319 C340.682205,479.25109 342.291127,462.649695 334.121307,452.90838 C330.554213,448.586718 325.377919,446.017336 320.089112,444.451937 C320.039281,442.749466 320.014504,441.04676 320.014504,439.350606 C326.612556,437.81024 331.975992,432.265849 333.516387,425.699016 C334.233605,422.13805 334.24624,418.452411 333.865638,414.847696 C333.036144,407.320394 328.078107,400.404317 321.155838,397.298552 C310.073419,392.122378 297.550525,392.739685 285.632444,392.739685 C274.637525,392.746109 263.642434,392.714652 252.647579,392.758316 L252.647579,392.758465 Z M373.579676,392.752041 L373.579676,392.752041 C361.667763,426.634431 349.793624,460.535451 338.037652,494.47416 C349.687579,494.567719 361.343589,494.480156 372.999555,494.523969 C374.078401,490.090033 375.076343,485.637123 376.086662,481.19053 C387.543109,481.153355 398.993431,481.122005 410.443603,481.203165 C411.578598,485.680615 412.751283,490.145902 413.992238,494.598812 C425.673259,494.430368 437.366701,494.480199 449.047723,494.586392 C436.693233,460.653893 424.825027,426.540872 412.270718,392.677541 C399.373776,392.845707 386.470409,392.702317 373.579676,392.752148 L373.579676,392.752041 Z M105.809385,487.426964 L105.809385,487.426964 C105.011243,489.447307 104.587138,491.611297 104.487243,493.781625 L104.144316,493.713078 C103.570747,495.970883 103.495638,498.471483 102.354569,500.517116 C96.928688,500.554548 91.496725,500.535747 86.0708437,500.535747 C83.5388457,500.573179 80.969415,500.261366 78.4685325,500.779033 C95.1513405,505.081979 111.927773,509.054397 128.685126,513.08322 C131.535259,513.987563 134.460001,512.921115 137.328872,512.646735 C146.902011,511.181212 156.568454,510.333039 166.129152,508.805072 C168.34325,508.954779 170.53814,508.462145 172.73986,508.3061 C195.958426,505.992639 219.257936,504.358458 242.595138,504.015553 C271.108463,503.37953 299.634208,504.57699 328.054166,506.97161 C334.627441,507.389401 341.182,508.387303 347.748958,508.680399 C357.746193,510.314344 367.849408,511.274813 377.865166,512.821496 C380.141495,513.070864 382.455236,513.837878 384.737882,513.207915 C396.019585,510.663567 407.214217,507.75128 418.452385,505.025874 C424.296065,503.466814 430.289454,502.487607 436.089363,500.791453 C435.783862,500.716611 435.185003,500.560566 434.885584,500.48598 C426.422663,500.58562 417.947364,500.510756 409.484229,500.535789 C408.91066,498.384199 408.299402,496.238668 407.694482,494.099711 C407.089541,491.804731 406.409756,489.534763 405.723654,487.264816 C397.466591,487.29593 389.203211,487.233465 380.946106,487.289592 C379.966902,491.717468 378.944184,496.145345 377.852681,500.548188 C361.799848,500.529558 345.740847,500.554612 329.688035,500.58562 C330.449003,498.072386 331.440349,495.640077 332.13279,493.108127 C326.5448,496.326166 320.408276,498.552621 314.071696,499.725027 C307.348711,500.803874 300.519745,500.523155 293.740868,500.554505 C264.011408,500.573136 234.294368,500.59168 204.564908,500.529472 C181.857942,500.741408 159.156539,500.442231 136.443573,500.560587 C136.050572,500.6792 135.264571,500.922465 134.865501,501.047139 C134.71604,501.009728 134.410289,500.934864 134.254251,500.897432 C133.250253,496.319849 131.865902,491.829764 130.674758,487.29593 C122.392662,487.314561 114.066815,487.027611 105.80941,487.426921 L105.809385,487.426964 Z M225.400928,511.667828 L225.400928,511.667828 C225.213786,519.906017 224.958117,528.150524 225.032961,536.395009 C228.020426,536.376378 231.013694,536.301429 234.001159,536.288794 C234.025936,533.388885 234.007156,530.488975 234.001159,527.595404 C235.16727,527.588979 236.327299,527.595404 237.499727,527.614034 C239.470555,530.177099 240.873618,533.114419 242.750865,535.740184 C246.131074,536.026963 249.536316,535.646626 252.922607,535.596795 C250.970752,532.384816 248.482247,529.534994 246.655089,526.248151 C248.058152,525.325349 249.59223,524.477155 250.559056,523.061463 C252.1556,520.891156 252.230444,517.822823 251.020584,515.465613 C249.555054,512.964779 246.636373,511.686394 243.842367,511.449189 C237.699268,510.912807 231.544048,511.605234 225.400949,511.6677 L225.400928,511.667828 Z M283.837087,511.580223 L283.837087,511.580223 C283.562701,519.818754 282.901633,528.038228 282.845484,536.282648 C290.697146,536.594482 298.536432,537.236822 306.388266,537.604782 C306.406897,535.503001 306.413043,533.407536 306.375845,531.318411 C301.654526,531.09384 296.93372,530.750913 292.212636,530.582491 C292.15017,524.371219 292.64913,518.172089 292.549252,511.966899 C289.649544,511.742328 286.743005,511.649005 283.83698,511.580223 L283.837087,511.580223 Z M168.293117,515.933321 L168.293117,515.933321 C168.000011,524.290123 168.355328,532.652986 168.498973,541.016191 C177.073935,540.161936 185.630674,539.13292 194.205701,538.240955 C194.05624,536.207977 193.894133,534.181038 193.825598,532.154356 C188.33725,532.559492 182.905287,533.48255 177.417175,533.856827 C177.379747,532.47225 177.342318,531.100307 177.311214,529.728386 C180.485564,529.416574 183.647536,528.936339 186.834264,528.674336 C186.815548,526.722261 186.721977,524.770444 186.634727,522.831024 C183.466694,523.211383 180.304743,523.63547 177.130371,523.884817 C177.117737,522.81839 177.117737,521.764319 177.117737,520.716844 C182.287949,520.28644 187.439188,519.644079 192.597002,519.107696 C192.553249,517.224425 192.484714,515.347193 192.42225,513.469982 C184.383445,514.330576 176.331984,515.097589 168.293136,515.933406 L168.293117,515.933321 Z M336.878479,515.110159 L336.878479,515.110159 C336.666561,523.342288 336.410613,531.568079 336.279877,539.800293 C339.410477,540.080755 342.516301,540.60476 345.659536,540.847769 C345.734401,532.566087 345.834279,524.284149 346.052537,516.002167 C342.990206,515.727787 339.940789,515.309761 336.878479,515.110159 L336.878479,515.110159 Z M378.806552,519.924455 L378.806552,519.924455 C378.332625,528.268859 377.902192,536.619579 377.590631,544.970065 C380.577839,545.294275 383.533696,545.855456 386.508762,546.298258 C386.683248,541.677183 386.770513,537.056086 386.907823,532.435011 C391.086433,537.748257 394.977744,543.317424 399.474231,548.368689 C402.006486,549.079812 404.644444,549.341814 407.244969,549.697376 C407.201218,541.284447 407.276341,532.877578 407.276341,524.47103 C404.413552,523.822373 401.501209,523.479446 398.613643,522.99313 C398.089885,527.202753 398.301804,531.449573 398.35821,535.683972 C394.747109,530.688855 390.755641,525.980281 386.764431,521.303058 C384.176284,520.56082 381.450827,520.373939 378.806552,519.924455 L378.806552,519.924455 Z M108.565015,524.208942 L108.565015,524.208942 C108.502804,532.703052 108.390516,541.196927 108.521518,549.690973 C114.9638,548.51225 121.455893,547.626623 127.867317,546.279478 C132.793981,545.369075 138.014025,541.221896 137.184509,535.702538 C136.872689,533.463941 134.702343,532.303935 132.787664,531.624162 C133.941375,530.364259 135.419561,529.19817 135.799906,527.445633 C136.037122,525.824107 135.737692,523.953192 134.440588,522.836935 C132.650589,521.265476 130.106209,521.015872 127.829623,521.284192 C121.368624,521.970281 114.963775,523.111336 108.565007,524.208878 L108.565015,524.208942 Z" id="_282248712"></path>
                </g>
                <path d="M241.272487,35.394119 C263.736187,33.6355128 286.561795,35.4441854 308.308749,41.4622583 C306.119684,43.0150227 303.431638,43.5453238 301.030911,44.6676629 C287.210636,50.6983702 274.494582,59.3419301 259.851065,63.401868 C257.088175,64.2189693 254.238041,64.7239801 251.36311,64.9235176 C247.053765,57.4212485 242.133161,50.1245556 235.815554,44.1563349 C233.033948,41.4683614 229.672455,39.5228607 226.354713,37.5895019 C231.2566,36.4355553 236.264704,35.8306473 241.272551,35.3941618 L241.272487,35.394119 Z" id="_282249552"></path>
                <path d="M193.955644,44.2253314 C197.759969,43.3086113 201.464631,42.0115109 205.293733,41.213147 C208.280941,40.5771241 211.224656,41.8431097 213.92508,42.9844004 C222.08856,46.8260635 228.181849,53.8918686 233.002554,61.3379897 C234.630192,63.9324046 236.438912,66.5081035 237.15613,69.5390038 C222.269385,71.8463829 207.121083,71.3102572 192.190825,69.7261425 C188.19304,69.4019316 184.183113,69.2208746 180.185329,68.9090412 C170.256878,67.9548891 160.216129,68.1109128 150.299971,69.214536 C145.092326,69.7261425 140.140628,71.5532655 134.989389,72.3890828 C137.196913,70.0129213 140.009635,68.3602597 142.722458,66.6390941 C148.634921,63.0530951 154.665487,59.6418358 160.989411,56.8355061 C166.920334,54.1912818 172.732642,51.2228252 178.925572,49.2083066 C183.933419,47.5493492 188.810273,45.4541419 193.955452,44.2253314 L193.955644,44.2253314 Z" id="_282249384"></path>
                <path d="M324.067752,45.7907088 C326.200689,44.4561978 328.545524,45.9654486 330.641028,46.60781 C348.096946,52.9563896 364.779754,61.4689803 380.065495,72.0335215 C395.575618,82.585664 409.476734,95.3700646 421.887351,109.414562 C424.525308,112.495293 427.593699,115.339055 429.246371,119.124334 C424.41301,115.189348 420.066232,110.67423 415.195717,106.77008 C405.734618,98.8189271 395.775052,91.4471347 385.297724,84.8929146 C381.618075,82.6103117 378.032007,80.13451 374.159156,78.2014082 C358.430518,82.1925423 344.411065,90.8674739 331.108316,99.8849898 C316.352843,99.1553869 301.528544,99.4735375 286.841555,101.082429 C284.434233,101.332032 282.051944,101.71237 279.688393,102.192604 C280.093793,103.951223 280.542686,105.703504 281.103856,107.418609 C277.231261,101.681019 275.6284,94.6402689 271.181722,89.2645575 C268.568541,86.0525787 264.596048,84.5435849 260.729278,83.464738 C260.124358,80.8015407 259.163849,78.2445578 258.19728,75.694149 C267.383736,72.7191397 276.239401,68.8466188 285.026775,64.8863211 C298.173326,58.7997228 311.207621,52.4511432 324.067302,45.7904946 L324.067752,45.7907088 Z" id="_282248568"></path>
                <g id="g34" transform="translate(35.138199, 78.832161)">
                    <path d="M91.8561344,4.47621071 C108.439043,-0.681247315 126.132128,-0.631180936 143.276228,0.915244873 C147.012005,1.02751948 150.747546,1.22073972 154.470688,1.60133414 C166.083183,2.69889709 177.75778,3.12298373 189.413961,2.70495731 C195.650642,2.53679166 201.799801,1.43922871 207.911549,0.285282199 C209.876039,4.14566125 211.4789,8.18054455 213.636614,11.9410478 C213.936054,14.3485811 213.592864,16.811727 213.162687,19.1942271 C209.963303,31.8289424 211.397717,44.9627798 211.503698,57.83485 C208.934268,58.6519513 206.315027,59.3003516 203.645697,59.6622514 C193.960537,60.9780464 184.175479,61.0840038 174.421193,61.364701 C155.905135,61.8199025 137.382705,61.7450599 118.866358,62.1380531 C96.8765623,64.015264 74.72423,64.1275386 52.8404368,67.2143514 C49.3917012,67.9689661 45.7992951,68.3743581 42.5811947,69.9023249 C40.2988053,70.950057 39.3506954,73.4445747 38.072308,75.4277429 C31.9916754,85.5370828 27.544998,96.4943603 23.416456,107.51391 C14.4234593,133.039412 7.64432519,159.375869 3.65287943,186.154957 C2.910628,190.358263 2.71109319,194.649068 1.73820225,198.802564 L1.38288265,198.097759 C0.353846903,196.232925 0.304027979,194.075274 0.210454746,192.010925 C-0.126403327,182.569215 -0.107689108,173.102237 0.628238589,163.672883 C3.26619601,126.435104 15.2590355,89.8712294 35.446664,58.4521141 C45.4312638,42.8800784 57.3493021,28.536275 70.826366,15.8639991 C76.8197556,10.4819705 84.2847351,7.03327926 91.8559523,4.47629636 L91.8561344,4.47621071 Z M179.042678,36.2069025 L179.042678,36.2069025 C159.765662,42.2499872 140.806482,49.4343841 122.589725,58.1902828 C121.155298,58.8761151 119.5962,59.5809417 118.8729,61.1025699 C127.816065,61.3832886 136.771629,61.096574 145.721026,61.1898113 C149.319235,61.3458566 152.630917,59.7554246 155.967376,58.6454628 C162.646868,56.3567997 169.251259,53.8372488 176.011677,51.8042498 C182.759717,49.745982 189.563627,47.8877227 196.361478,45.9981131 C201.03273,44.9190306 205.716103,43.8715554 210.325146,42.5431047 C210.692856,38.2151253 210.487254,33.868173 210.549721,29.5338551 C199.797836,30.30089 189.239175,32.7832659 179.042635,36.2069025 L179.042678,36.2069025 Z" id="_282249672"></path>
                </g>
                <path d="M253.339613,91.9147349 C254.349933,92.6195402 255.316759,93.5613149 255.192083,94.9084603 C255.160968,98.4256769 256.48287,102.317171 254.331473,105.466427 C254.343894,101.973987 252.684862,98.7996972 252.298179,95.3823777 C252.048827,94.1037578 252.809795,92.9998776 253.339613,91.9147349 Z" id="_282250296"></path>
                <path d="M284.191627,111.684316 C285.426264,112.644807 286.648759,114.035444 288.376296,113.879421 C295.822581,113.661167 303.231668,112.713332 310.671678,112.382804 C304.578647,116.380256 298.073898,119.847898 291.257331,122.460772 C288.812576,118.924583 286.810911,115.101893 284.191627,111.684316 L284.191627,111.684316 Z" id="_282250368"></path>
                <g id="g39" transform="translate(282.681897, 412.699978)">
                    <path d="M0,0.140672656 C5.9372405,0.290122296 12.4045566,-0.994557856 17.8365196,2.0988077 C23.5805576,6.10234063 23.1063741,16.305239 16.8823493,19.6542686 C11.7371706,22.3483238 5.73772068,21.5127634 0.156048186,21.7059837 C-0.112276744,14.5215868 0.143627718,7.33112974 0,0.140608414 L0,0.140672656 Z M6.23034213,6.24598702 L6.23034213,6.24598702 C6.23655236,9.35175139 6.19922671,12.4572588 6.23655236,15.5693404 C9.18658474,15.4757603 12.8098279,15.868775 14.9551424,13.3742359 C16.0840773,11.4907079 16.2335298,8.26658726 14.0320661,7.06914852 C11.6624336,5.72832036 8.82467801,6.28341902 6.23021364,6.24598702 L6.23034213,6.24598702 Z" id="_282250464"></path>
                </g>
                <g id="g42" transform="translate(106.894013, 422.491043)">
                    <path d="M7.31537705,0.195853439 C9.95359144,0.146044031 12.6476979,-0.346589435 15.223446,0.451517467 C17.9613025,13.2485738 20.2750429,26.1391245 22.9939261,38.9486653 C15.3291484,39.1795746 7.66462775,38.8740797 0,39.1608586 C2.02670981,26.1081168 5.08877266,13.2237762 7.31526997,0.195810611 L7.31537705,0.195853439 Z M7.48380501,32.9368668 L7.48380501,32.9368668 C10.0469184,32.9304425 12.6165847,32.9430769 15.1796981,32.9618999 C14.0196628,25.9957565 12.6226664,19.0670451 11.2069473,12.150968 C9.83498454,19.0483291 8.53155712,25.9707233 7.48380501,32.9368668 Z" id="_282250560"></path>
                </g>
                <g id="g45" transform="translate(382.198068, 422.541945)">
                    <path d="M7.3405392,0.481154016 L7.65843893,0.0633845626 C10.2405042,-0.0552286418 12.8349686,0.00697958334 15.4167984,0.131909974 C17.8926473,13.0660386 20.462078,25.9878326 23.1063527,38.8909534 C15.4041423,39.115524 7.70218895,38.8659202 0,39.0717748 C0.0998776915,37.3693038 0.367945646,35.6979476 0.742251429,34.0453074 C2.96874874,22.8634593 5.03921928,11.6441363 7.34056062,0.481132602 L7.3405392,0.481154016 Z M7.57117444,32.8666918 L7.57117444,32.8666918 C10.1593215,32.8978066 12.7537859,32.9041238 15.3479933,32.9041238 C14.113099,26.1003427 12.8908607,19.2839059 11.3567831,12.5486503 C9.75394313,19.2464739 8.7312247,26.0753095 7.57117444,32.8667132 L7.57117444,32.8666918 Z" id="_282250656"></path>
                </g>
                <g id="g48" transform="translate(282.681897, 450.929217)">
                    <path d="M0,0.0886542332 C6.87903317,0.275792849 14.2195938,-0.96539508 20.6431598,2.19043567 C27.9521125,5.5017977 28.3327142,17.600366 21.2852552,21.4048754 C15.5541302,24.7787026 8.65638067,23.8182119 2.30768006,24.0116891 C1.45946919,23.9552841 -0.205601569,24.3981082 0.0500673333,22.9576398 C-0.012399053,15.3367575 0.0938173598,7.71587516 0,0.0885685765 L0,0.0886542332 Z M6.23668085,6.21900179 L6.23668085,6.21900179 C6.23047061,10.0920366 6.19924813,13.9772133 6.24931546,17.8563084 C9.90999132,17.9061178 13.6892612,18.005758 17.1754509,16.6963016 C21.1170863,15.6298535 21.2791949,9.15634355 17.6994662,7.55376973 C14.1384325,5.80123233 10.0721213,6.16311075 6.23670226,6.21900179 L6.23668085,6.21900179 Z" id="_282250752"></path>
                </g>
                <path d="M233.993664,516.91362 C236.569155,516.863553 239.25112,516.321089 241.751767,517.175622 C243.853588,517.911521 243.180121,521.353895 241.134448,521.665707 C238.783275,522.083733 236.375953,521.983836 234.000003,522.039984 C234.000003,520.331196 233.993793,518.622151 233.993793,516.91362 L233.993664,516.91362 Z" id="_282250824"></path>
                <path d="M117.246616,528.282414 C120.252547,527.957946 123.233438,526.623456 126.27703,527.29083 C126.87589,528.132707 127.268635,529.635641 126.002639,530.097159 C123.42083,531.649902 120.215108,531.300658 117.346258,531.880812 C117.283792,530.670974 117.259008,529.473535 117.246616,528.282414 L117.246616,528.282414 Z" id="_282250896"></path>
                <path d="M117.751793,537.46696 C120.77669,536.73104 123.938385,536.126132 127.062925,536.388135 C128.672103,537.267423 128.141779,539.999167 126.507818,540.554009 C123.601792,541.54585 120.508368,541.745109 117.508504,542.294147 C117.658217,540.741147 116.885114,538.732924 117.75179,537.46696 L117.751793,537.46696 Z" id="_282250968"></path>
            </g>
            <g id="_280287376" transform="translate(24.321297, 24.489624)" fill="#01CCFF">
                <g id="g55">
                    <path d="M158.165545,12.026599 C184.845352,3.07120575 213.165517,-0.969994736 241.285884,0.196329181 C271.327141,1.54955188 301.143972,8.5905636 328.447372,21.2315747 C363.234532,37.1404771 393.893386,61.8930549 416.78131,92.5386896 C430.763694,111.135565 441.864872,131.871633 449.710111,153.76743 C451.518831,159.149458 453.607996,164.481677 454.618316,170.08196 C453.240029,167.793296 452.298237,165.286123 451.269458,162.829037 C447.196808,153.599264 442.475745,144.687363 437.779716,135.769209 C432.241794,125.510419 424.81399,116.461446 417.149448,107.742958 C413.812732,104.025968 410.432523,100.346646 406.846713,96.8666047 C406.160611,96.1617994 405.412278,95.4946617 404.925716,94.6338327 C403.273045,90.8485532 400.204654,88.0047914 397.566696,84.9240602 C385.156058,70.8794774 371.254792,58.0950768 355.74484,47.54302 C340.459035,36.9784787 323.77627,28.4659095 306.320373,22.1173085 C304.224869,21.4749684 301.880013,19.9657177 299.747098,21.3002072 C286.887331,27.9608558 273.852993,34.3094568 260.70657,40.3960337 C251.919175,44.35631 243.06351,48.2288309 233.877075,51.2038616 C234.843644,53.7542704 235.804132,56.3112533 236.409073,58.9744506 C236.016072,58.9119854 235.236645,58.7809948 234.843644,58.7187865 C233.047581,55.606705 230.496866,53.0373233 228.476227,50.0873471 C225.694621,46.1086118 223.175279,41.9490551 220.998592,37.6147372 C220.381273,36.6418691 219.963496,35.2509531 218.697486,34.9765731 C217.025841,34.5775196 215.317277,35.0701531 213.676983,35.3695663 C214.899222,37.2902694 216.726658,38.7186173 217.961552,40.6330032 C221.05472,45.3790089 222.539222,50.9231644 225.195896,55.8937408 C226.324574,58.0574735 227.983563,59.9035909 229.037397,62.11739 C228.557389,62.11739 227.590584,62.1300243 227.104258,62.1300243 C224.191659,57.3653026 221.709728,52.313802 219.682772,47.1001745 C218.354317,44.0133831 217.337916,40.5457403 214.680985,38.3068867 C214.04495,37.6458306 213.18434,38.1508629 212.454745,38.2757933 C216.658131,42.5913952 218.59127,48.4346855 221.085835,53.7856207 C222.401912,57.0661249 224.204293,60.1344573 225.532512,63.4020701 C225.382803,64.4310862 224.877761,65.354145 224.453666,66.2832639 C222.295953,62.5227606 220.693091,58.4878773 218.728602,54.6274983 C212.616854,55.7814448 206.467694,56.8789863 200.231013,57.0471734 C188.575025,57.4651998 176.900225,57.0411774 165.28773,55.9435502 C161.564588,55.5629558 157.829068,55.3697355 154.09327,55.2574609 C136.949191,53.7110351 119.255999,53.6609473 102.673176,58.8184268 C95.1019589,61.3754097 87.6369794,64.8241009 81.6435898,70.2061295 C68.1665044,82.8785125 56.2484447,97.222273 46.2638878,112.794244 C26.076195,144.213574 14.0833127,180.777234 11.4454624,218.015014 C10.7095347,227.444325 10.6908205,236.911303 11.0276785,246.353055 C11.1212496,248.417405 11.1710707,250.575077 12.2001064,252.439889 C12.8922841,253.518715 12.6429282,254.791017 12.4557839,255.988199 C11.2145702,263.446976 11.0835685,271.036765 10.0421444,278.520639 C9.12539611,285.842108 10.2854314,293.176212 10.4788952,300.491385 C8.58293219,292.814355 6.03853515,285.305769 4.66633045,277.504108 C-4.80691012,231.697654 0.275802214,183.097505 18.7109241,140.122436 C26.2570863,122.66685 35.6868338,105.909411 47.5861558,91.0419662 C75.5319938,54.5215623 114.535046,26.5824671 158.165793,12.0268132 L158.165545,12.026599 Z M216.950976,10.9040029 L216.950976,10.9040029 C211.943129,11.3405098 206.935025,11.9454178 202.033138,13.0993429 C205.35088,15.0327018 208.712372,16.9782024 211.493979,19.6661974 C217.811586,25.6344395 222.732189,32.931111 227.041535,40.4333587 C229.916466,40.2338427 232.7666,39.7288104 235.52949,38.9117305 C250.172943,34.851814 262.888996,26.2082327 276.709336,20.1775254 C279.110084,19.0551863 281.798109,18.5248638 283.987173,16.9721208 C262.240434,10.9540693 239.414826,9.14537531 216.950911,10.9039815 L216.950976,10.9040029 Z M169.634348,19.7347228 L169.634348,19.7347228 C164.489169,20.9635333 159.612315,23.0587406 154.604468,24.7177194 C148.411537,26.732238 142.59923,29.7006946 136.668307,32.3449189 C130.344383,35.1512486 124.313817,38.5625079 118.401353,42.1485069 C115.688531,43.8696725 112.87583,45.5223341 110.668285,47.8984956 C115.819524,47.0626783 120.771243,45.2355553 125.978867,44.7239488 C135.894918,43.6203257 145.935667,43.4642804 155.864225,44.418454 C159.862009,44.730266 163.871936,44.911323 167.86972,45.2355338 C182.799958,46.8196486 197.948238,47.3557743 212.835025,45.0483952 C212.117808,42.0174949 210.309088,39.441796 208.68145,36.8473811 C203.860745,29.4012385 197.767456,22.3354549 189.603976,18.4937918 C186.903552,17.3525011 183.959837,16.0865155 180.972629,16.7225384 C177.143527,17.5209237 173.438844,18.8180027 169.63454,19.7347228 L169.634348,19.7347228 Z" id="_280286872"></path>
                </g>
                <path d="M262.521457,76.5925266 C277.208403,74.9836356 292.032703,74.6654849 306.788218,75.3950878 C300.108983,79.7668164 293.448443,84.2321249 286.351174,87.8929879 C278.911228,88.223516 271.502119,89.1713509 264.055792,89.3896043 C262.328255,89.5456281 261.10576,88.1549906 259.871122,87.1944999 C258.636228,85.9409131 257.588476,84.4941275 256.783758,82.9287287 C256.222588,81.2136234 255.773696,79.4613429 255.368296,77.7027239 C257.731868,77.2224678 260.114157,76.8421304 262.521457,76.5925266 L262.521457,76.5925266 Z" id="_280286896"></path>
                <path d="M189.85958,90.5502963 C200.056099,87.1266597 210.614781,84.6442624 221.366666,83.8772489 C221.3042,88.2115454 221.509801,92.5584977 221.142091,96.8864985 C216.533048,98.2149278 211.849676,99.262403 207.178423,100.341507 C200.380573,102.231117 193.576662,104.089354 186.828622,106.147644 C180.068204,108.180643 173.463816,110.700194 166.784324,112.988857 C163.447865,114.098797 160.136183,115.689229 156.537973,115.533205 C147.588491,115.439882 138.632927,115.726661 129.689848,115.445964 C130.41313,113.924314 131.972237,113.219509 133.406672,112.533677 C151.623537,103.777821 170.582631,96.5934239 189.859623,90.5502963 L189.85958,90.5502963 Z" id="_280286536"></path>
                <path d="M309.021118,134.815571 C310.087587,133.780494 311.116623,132.576717 312.551037,132.046673 C314.565358,132.096739 316.436287,133.007164 318.319851,133.630788 C339.261938,141.214238 357.64091,154.678689 373.045074,170.587613 C400.149318,198.826078 420.667289,234.02437 428.91812,272.484043 C432.073754,287.401597 432.80337,302.892623 430.346216,317.966286 C430.053115,319.662418 429.785047,321.364889 429.660114,323.086333 C433.109107,316.924636 435.447645,310.208096 437.954866,303.622547 C446.729349,279.269258 451.307019,253.344382 450.932992,227.438778 C450.870525,213.275839 449.479861,199.087888 446.374038,185.261816 C446.06222,183.659242 446.099652,182.018744 446.174496,180.397454 C450.677323,187.070244 454.625018,194.10517 458.273295,201.270594 C459.589115,203.983622 461.154544,206.60913 462.009072,209.521439 C462.707573,212.483557 462.663823,215.552146 462.882081,218.570648 C465.563788,270.650603 450.59614,323.74709 419.837666,365.992578 C418.166278,368.119135 416.850457,370.613653 414.692487,372.291348 C410.033891,371.418355 405.49997,369.990029 400.897502,368.880089 C401.302645,367.888247 401.739138,366.902981 402.437897,366.079819 C406.079856,361.521209 410.09004,357.10571 412.328915,351.630101 C417.268235,340.273513 420.174517,328.068923 421.465304,315.770753 C422.825131,304.358274 422.88734,292.62137 419.993692,281.433098 C413.875627,257.260759 403.97827,234.017796 390.395076,213.094846 C374.199086,188.043241 352.364889,165.95386 325.379495,152.713894 C317.49646,148.728842 309.039878,146.109372 300.664264,143.409257 C303.327255,140.428166 306.264653,137.715159 309.021225,134.815249 L309.021118,134.815571 Z" id="_280286560"></path>
                <path d="M182.824884,174.511057 C183.666778,173.781475 184.857922,174.143097 185.868242,174.105665 C190.66417,174.473368 195.485131,173.980734 200.268403,174.511057 C197.942264,179.026175 193.570452,181.963516 190.408479,185.85501 C172.728008,205.643265 160.685229,229.840187 152.078702,254.785792 C143.815322,278.446546 138.501974,303.03689 134.572974,327.764285 C133.207082,335.908916 131.816401,344.097531 131.622941,352.372831 C127.008095,353.533095 122.374276,354.618002 117.753091,355.759292 C117.40384,348.519005 118.569946,341.315913 119.305874,334.137812 C121.145694,320.854182 123.178726,307.570724 126.309583,294.524128 C132.252905,269.827998 139.954859,245.437449 151.031239,222.537327 C158.240549,208.093948 166.454119,194.06202 176.738181,181.564056 C178.76489,179.219245 180.423879,176.512812 182.824884,174.510907 L182.824884,174.511057 Z" id="_280286632"></path>
                <path d="M284.704841,239.580218 C286.868872,240.509594 288.116401,242.542593 289.394809,244.400831 C290.161838,244.432181 290.935204,244.457236 291.714632,244.494411 L292.176159,244.513041 C296.666329,270.855708 300.196505,297.403951 301.319122,324.120725 C301.450137,330.332253 302.65974,336.487613 302.148381,342.71154 C297.277845,342.667791 292.587897,341.133764 287.916645,339.967419 C287.012285,335.96365 287.43638,331.816471 287.018603,327.756554 C285.690405,304.039481 282.553209,280.478517 279.148223,256.979655 C278.636607,253.063385 277.582795,249.196924 277.688754,245.224249 C279.372541,245.922737 281.174922,246.565099 283.033453,246.390337 C283.782043,244.1702 284.000022,241.813011 284.704841,239.580218 L284.704841,239.580218 Z" id="_280286704"></path>
                <path d="M22.4027668,309.758805 C22.6834822,306.79037 23.3632673,303.877825 23.6313374,300.909369 C24.030407,302.892537 24.6355878,304.838295 25.4898719,306.678074 C27.0489768,310.008409 28.121769,313.53826 29.6621639,316.880715 C38.025186,335.864524 49.157437,353.613119 62.5783305,369.42236 C57.9073352,370.494868 53.2985494,371.823555 48.6523523,372.99596 C39.5468218,361.240297 31.5206514,348.642672 24.7975593,335.377865 C24.1675953,334.118218 23.5439529,332.827199 23.2882755,331.436562 C22.1532781,324.264564 22.2779561,316.986844 22.4026319,309.758762 L22.4027668,309.758805 Z" id="_280287424"></path>
            </g>
            <g id="_280286920" transform="translate(49.485426, 365.684211)" fill="#FF0100">
                <path d="M206.012779,0.195119132 C208.152033,-0.403728722 210.278631,0.525647171 212.349102,0.974531444 C247.485748,9.73064428 282.659656,18.2991046 317.777458,27.1174042 C310.031754,48.9573094 302.603929,70.9220593 294.739632,92.7120695 C292.812553,88.1157703 290.280555,83.675238 286.463853,80.3699576 C284.592666,78.6925198 282.403859,77.4202384 280.302037,76.0606943 C285.054472,72.5619367 288.415965,67.3673036 289.837744,61.6547255 C291.184915,56.7339586 290.922929,51.5641017 290.268178,46.5624105 C288.6466,38.4615505 283.476644,30.9903748 276.079935,27.1550289 C265.852301,21.4922817 253.834449,20.6878362 242.384277,20.937183 C227.247924,20.9558133 212.112171,20.8873736 196.982328,20.937183 C196.975904,43.8747796 197.019761,66.805952 196.963269,89.7433345 C187.914145,89.7683677 178.858938,89.7185583 169.809771,89.7557547 C169.585196,66.8307925 169.759704,43.8996201 169.828402,20.9746578 C158.465259,20.8436458 147.102372,21.0057512 135.745782,20.887395 C132.109883,20.9498602 128.436315,21.3239019 124.862904,20.4195592 C124.731905,20.8623618 124.463835,21.7416713 124.332833,22.1847309 C124.370261,51.5891991 124.600903,81.0063017 124.214224,110.41077 C115.60185,86.9371761 107.500557,63.269998 98.8629786,39.8024001 C97.441197,35.7859758 95.9569532,31.7824643 94.7905857,27.6851158 C106.477689,24.5543183 118.271051,21.8726619 129.989334,18.8607131 C155.341019,12.6802992 180.605106,6.14458101 206.012458,0.195054889 L206.012779,0.195119132 Z" id="_280287160"></path>
                <path d="M35.0570341,42.434611 C37.2248554,41.8883564 34.8056546,42.4948063 37.2248554,41.8883564 C36.3791715,44.3492325 37.2248554,41.8883564 36.3791715,44.3492325 C28.0907579,68.696097 19.5155385,92.9558058 10.9964469,117.227721 C7.36688641,116.348433 3.73098724,115.512615 0.101169819,114.63988 C0.0887707663,93.460988 -0.042222338,72.2821817 0.0139203171,51.1035467 C11.6825428,48.1722866 23.3509083,45.2349448 35.0569849,42.4346753 L35.0570341,42.434611 Z" id="_280291120"></path>
                <path d="M374.590561,41.1068455 C388.049016,44.4807584 401.513509,47.8545856 415.021839,51.0415098 C415.183947,72.2077674 414.984406,93.3803635 415.121481,114.546578 C410.799736,115.656776 406.459275,116.704508 402.10618,117.702409 C392.751298,92.2390086 383.914092,66.5824521 374.590561,41.1068455 L374.590561,41.1068455 Z" id="_280291000"></path>
                <path d="M239.42812,53.2616261 C242.022584,53.2990581 244.86034,52.7439594 247.229972,54.0847876 C249.431436,55.2822263 249.281962,58.5063469 248.153049,60.3898749 C246.007734,62.8843926 242.384491,62.4913994 239.434458,62.5849794 C239.397026,59.4728978 239.434458,56.3673904 239.428034,53.2616261 L239.42812,53.2616261 Z" id="_280290808"></path>
                <path d="M64.8922823,89.742842 C65.9400322,82.7766986 67.2434554,75.8543043 68.6154245,68.9569433 C70.0311372,75.8730203 71.4281465,82.8017317 72.5881753,89.7678752 C70.0250619,89.7492448 67.4553957,89.7365248 64.8922823,89.742842 Z" id="_280290640"></path>
                <path d="M340.284458,89.7257106 C341.444487,82.934307 342.467206,76.1054928 344.070067,69.4076477 C345.604145,76.1429034 346.826383,82.9593402 348.061277,89.7631212 C345.46707,89.7631212 342.872605,89.756697 340.284458,89.7256892 L340.284458,89.7257106 Z" id="_280290424"></path>
                <path d="M239.434544,91.4645429 C243.269963,91.4086519 247.336296,91.0467735 250.897308,92.7993109 C254.477058,94.4018847 254.31495,100.875395 250.373314,101.941843 C246.887146,103.251299 243.107855,103.15168 239.447179,103.10185 C239.39709,99.2227545 239.42812,95.3375778 239.434544,91.4645429 L239.434544,91.4645429 Z" id="_280290208"></path>
                <path d="M56.3232303,121.742068 C64.5805499,121.342757 72.9063963,121.629793 81.1885782,121.611077 C82.3797203,126.144911 83.7640693,130.634996 84.7680713,135.212579 C74.7897889,133.073622 64.986014,130.204828 55.0011358,128.096729 C55.1010306,125.926422 55.525136,123.762432 56.3232774,121.742068 L56.3232303,121.742068 Z" id="_280290016"></path>
                <path d="M331.459502,121.605017 C339.716565,121.548869 347.979945,121.611227 356.23705,121.580241 C356.923152,123.850188 357.602937,126.120156 358.207878,128.415137 C338.238443,133.310613 318.206692,138.000471 298.262419,142.995845 C291.695461,142.702728 285.140901,141.704826 278.567626,141.287057 C250.147669,138.892436 221.621923,137.694998 193.108598,138.330999 C169.771396,138.673905 146.472089,140.308107 123.25331,142.621546 C121.051589,142.77757 118.8567,143.270204 116.642602,143.120497 C106.258684,140.395349 95.7500904,138.156495 85.3787857,135.362543 C85.7778554,135.237869 86.5638568,134.994582 86.9568575,134.875969 C109.670038,134.757634 132.371227,135.056791 155.078197,134.844876 C184.807657,134.907084 214.524697,134.888625 244.254157,134.869909 C251.033034,134.838559 257.862,135.119256 264.584985,134.04043 C270.921543,132.868025 277.058089,130.64157 282.646079,127.423531 C281.953638,129.955481 280.962292,132.38779 280.201324,134.901024 C296.254158,134.869909 312.313158,134.844876 328.36597,134.863592 C329.457473,130.460749 330.480191,126.032872 331.459395,121.604995 L331.459502,121.605017 Z" id="_280289800"></path>
            </g>
            <g id="_280289560" transform="translate(63.281810, 392.671952)" fill="#FFFF01">
                <g id="g75" transform="translate(-0.000000, 0.000000)">
                    <path d="M35.2116189,0.0500663788 C48.1586501,0.0750995681 61.1057241,0.162340983 74.0463524,0 C83.5944584,26.6296173 93.1615163,53.2466003 102.715576,79.8760034 C105.278689,87.265998 108.153856,94.5502706 110.505029,102.015065 C98.9362843,101.734603 87.3612008,101.740663 75.7863957,101.98395 C74.4953609,97.5186415 73.185614,93.0596716 72.1254628,88.5321548 C60.6502998,88.4322576 49.1747942,88.4944873 37.6997812,88.5008045 C36.6707454,92.9349982 35.660426,97.3815907 34.6627413,101.827926 C23.1063955,101.840561 11.5503925,101.877993 0,101.784434 C0.511609769,99.1212368 1.54064337,96.6019214 2.41363949,94.0449385 C11.6438458,67.4966951 20.9362615,40.9670821 30.1348384,14.4062043 C31.8499808,9.62908375 33.3405611,4.77103894 35.211469,0.0500663788 L35.2116189,0.0500663788 Z M50.9276006,30.0160147 L50.9276006,30.0160147 C48.7011033,43.0439588 45.6390297,55.9282566 43.6123306,68.9810626 C51.2768513,68.6942838 58.941372,68.999693 66.6062567,68.7688908 C63.8873735,55.9594357 61.5736117,43.0688635 58.8357766,30.2717429 C56.2600286,29.4736146 53.5659221,29.9662481 50.9277077,30.0160575 L50.9276006,30.0160147 Z" id="_280289512"></path>
                </g>
                <path d="M116.647878,0.242794098 C127.674184,-0.149942166 138.70024,0.230373868 149.726403,0.0371964499 C149.782552,22.9747931 149.670254,45.9119614 149.782552,68.843348 C160.93958,68.9369066 172.096565,68.7184176 183.247575,68.9242722 C183.179027,79.9065829 183.241579,90.8825979 183.210142,101.86508 C161.045604,101.808675 138.881277,101.871076 116.722734,101.83373 C116.666592,67.9699702 116.797591,34.1066391 116.647878,0.242665613 L116.647878,0.242794098 Z" id="_280289224"></path>
                <g id="g79" transform="translate(189.365940, 0.044945)">
                    <path d="M0,0.0415253413 C10.9948335,-0.00222385113 21.9899668,0.0291051104 32.9848646,0.022894995 C44.9028601,0.022894995 57.4257751,-0.594411891 68.5082586,4.58176213 C75.4305278,7.68752651 80.3885644,14.6036036 81.2180589,22.1309059 C81.5986606,25.7356209 81.5860259,29.4212602 80.8688082,32.982226 C79.3284132,39.549059 73.9649983,45.09345 67.3669247,46.6338156 C67.3669247,48.3299695 67.3917014,50.032676 67.4415332,51.7351471 C72.730361,53.3005458 77.9066337,55.8699276 81.4737278,60.1915897 C89.6435473,69.9329695 88.0346042,86.5342569 77.6319915,94.0863996 C70.2479378,99.6183919 60.7933922,101.601325 51.7254658,101.79478 C34.4878054,101.757348 17.2501022,101.875705 0.0122063216,101.732315 C-0.00642437981,67.8375052 0.0122063216,33.9364852 0,0.0416752406 L0,0.0415253413 Z M30.0347894,20.1228758 L30.0347894,20.1228758 C30.1784385,27.3133328 29.9225126,34.5037899 30.1908161,41.688251 C35.7724886,41.4950522 41.7719386,42.3305911 46.9171173,39.636536 C53.1411421,36.287485 53.6153256,26.0845866 47.871309,22.081075 C42.439346,18.9877095 35.9720299,20.2724111 30.0347894,20.12294 L30.0347894,20.1228758 Z M30.0347894,58.3018088 L30.0347894,58.3018088 C30.1286067,65.9290083 30.0223689,73.5498906 30.0848567,81.17088 C29.8291878,82.6113484 31.4942586,82.1685457 32.3424694,82.2249293 C38.69117,82.0314735 45.5889196,82.9919428 51.3200446,79.6181156 C58.3675036,75.8136276 57.9869019,63.7150379 50.6779492,60.4036759 C44.2543832,57.2478451 36.9138225,58.489033 30.0347894,58.3018944 L30.0347894,58.3018088 Z" id="_280289032"></path>
                </g>
                <g id="g82" transform="translate(274.756612, 0.005439)">
                    <path d="M35.5420247,0.0746070417 C48.4329069,0.0247976333 61.3361238,0.168187057 74.2330663,-9.73804667e-14 C86.7873323,33.8633311 98.6555603,67.9763516 111.010071,101.908851 C99.3290494,101.802636 87.6356074,101.752827 75.9545859,101.921271 C74.7136313,97.468361 73.5409464,93.0030525 72.4059512,88.5256235 C60.9558219,88.4444423 49.5053928,88.4757927 38.0490105,88.5129891 C37.0386911,92.9595817 36.0407707,97.4124914 34.9619032,101.846428 C23.3059154,101.802679 11.6499703,101.890177 4.86911617e-14,101.796619 C11.755887,67.8581239 23.6301538,33.9568897 35.5420247,0.0744999708 L35.5420247,0.0746070417 Z M51.5012977,30.3461358 L51.5012977,30.3461358 C49.199935,41.509268 47.1294859,52.7284625 44.9029885,63.9103107 C44.5287042,65.5629509 44.2606362,67.2343071 44.1607371,68.9367781 C51.8629475,68.7309235 59.5649009,68.9805273 67.2670898,68.7559566 C64.6228151,55.8526859 62.0533844,42.9308705 59.5775355,29.9969132 C56.9957271,29.8719828 54.4012628,29.8097746 51.819176,29.9283878 L51.5012763,30.3461573 L51.5012977,30.3461358 Z" id="_280288840"></path>
                </g>
            </g>
        </g>
    </g>
</svg>