<?xml version="1.0" encoding="UTF-8"?>
<svg width="256px" height="203px" viewBox="0 0 256 203" version="1.1" xmlns="http://www.w3.org/2000/svg" xmlns:xlink="http://www.w3.org/1999/xlink">
    <title>logo-berghain</title>
    <g id="Page-1" stroke="none" stroke-width="1" fill="none" fill-rule="evenodd">
        <g id="logo-berghain" fill="#000000">
            <path d="M36.7506715,79.1883593 L39.3660534,34.978711 L82.6840839,34.978711 L82.6840839,1.42183101e-14 L3.051133,1.42183101e-14 L0,79.1883593 L3.051133,158.375842 L82.6840839,158.375842 L82.6840839,123.397131 L39.3660534,123.397131 L36.7506715,79.1883593 Z M12.5947372,177.269753 L12.5947372,183.0352 L19.2361082,183.0352 L19.2361082,177.269753 L12.5947372,177.269753 L12.5947372,177.269753 Z M12.5947372,190.626066 L12.5947372,196.346819 L25.4789532,196.346819 L25.4789532,190.626066 L12.5947372,190.626066 L12.5947372,190.626066 Z M16.5138687,203 L0.913106402,202.542988 C0.913106402,192.021639 0.913106402,181.499413 0.913106402,170.978063 L16.5138687,170.519299 L32.1067481,170.978063 L32.1067481,202.542112 L16.5138687,203 Z M219.250204,79.1883593 L216.634822,123.397131 L173.316792,123.397131 L173.316792,158.375842 L252.948867,158.375842 L256,79.1883593 L252.948867,1.42183101e-14 L173.316792,1.42183101e-14 L173.316792,34.978711 L216.634822,34.978711 L219.250204,79.1883593 Z M127.999562,100.227553 L147.32282,98.4437609 L149.037796,79.1883593 L147.32282,59.9338341 L127.999562,58.1491657 L108.67718,59.9338341 L106.961328,79.1883593 L108.67718,98.4437609 L127.999562,100.227553 Z M173.480144,79.1883593 L171.140665,122.185152 L127.999562,124.573181 L84.8602114,122.185152 L82.5198562,79.1883593 L84.8602114,36.1906905 L127.999562,33.8026614 L171.140665,36.1906905 L173.480144,79.1883593 L173.480144,79.1883593 Z M233.243286,183.812077 L239.385405,203 L255.086894,202.542988 L255.089521,170.977187 L245.739925,170.865454 L245.742115,189.708975 L239.575909,170.519299 L223.895004,170.977187 L223.895004,202.542988 L233.243286,202.653845 L233.243286,183.812077 L233.243286,183.812077 Z M148.895028,190.913067 L155.574062,190.913067 L155.574062,202.792307 L167.796549,202.544303 L167.79217,170.98595 L155.574062,170.738822 L155.574062,182.606232 L148.895028,182.606232 L148.895028,170.725239 L136.60028,170.977187 L136.594149,202.542988 L148.895028,202.795813 L148.895028,190.913067 L148.895028,190.913067 Z M183.606209,177.172479 L190.436333,177.172479 L190.436333,183.855456 L183.606209,183.855456 L183.606209,177.172479 Z M183.606209,190.913067 L190.436333,190.913067 L190.436333,202.774342 L202.345255,202.545179 L202.345255,170.977187 L186.778652,170.519299 L171.150737,170.935561 L171.149861,202.542988 L183.606209,202.805014 L183.606209,190.913067 L183.606209,190.913067 Z M113.909257,179.307246 L133.239085,179.287528 L133.239085,170.975434 L117.669416,170.519299 L102.048071,170.975434 L102.046319,188.871193 L105.410142,202.729211 L117.624746,202.999124 L133.239085,202.542112 L133.239085,185.966561 L122.052765,185.966561 L123.601323,192.993939 L117.053234,193.04871 L113.909257,179.307246 L113.909257,179.307246 Z M80.0087041,176.766734 L85.8906859,176.921408 L86.0444031,183.012854 L80.0087041,183.012854 L80.0087041,176.766734 L80.0087041,176.766734 Z M94.1134609,185.687884 L99.579399,185.722062 L99.579399,181.762753 C99.579399,177.312694 98.9697855,170.85669 94.5859989,170.85669 L82.8264147,170.519299 L68.3800641,170.977187 L68.358605,202.542988 L80.0087041,203 L80.0087041,190.506445 L86.0111196,190.506445 L88.704893,202.723076 L98.9124153,202.58812 L94.1134609,185.687884 L94.1134609,185.687884 Z M46.7046261,177.433191 L64.6181533,177.433191 L64.6181533,170.931179 L50.4542745,170.554353 L35.4661913,170.972367 L35.4661913,202.544303 L50.4472675,202.968452 L64.6190292,202.588996 L64.6190292,196.086984 L46.7046261,196.086984 L46.7046261,190.421002 L65.4322851,190.421002 L65.433161,183.072007 L46.705502,183.072007 L46.7046261,177.433191 L46.7046261,177.433191 Z M220.520233,202.544303 L220.520233,170.977187 L213.112027,170.822513 L205.705574,170.977187 L205.705574,202.544303 L213.093196,202.826484 L220.520233,202.544303 L220.520233,202.544303 Z" id="Shape"></path>
        </g>
    </g>
</svg>