<?xml version="1.0" encoding="UTF-8"?>
<svg width="256px" height="67px" viewBox="0 0 256 67" version="1.1" xmlns="http://www.w3.org/2000/svg" xmlns:xlink="http://www.w3.org/1999/xlink">
    <title>logo-code</title>
    <g id="Page-1" stroke="none" stroke-width="1" fill="none" fill-rule="evenodd">
        <g id="logo-code" fill="#000000" fill-rule="nonzero">
            <path d="M33.1851852,51.0594796 C24.202729,51.0594796 16.9668616,43.0892193 16.9668616,33.3754647 C16.9668616,23.66171 24.202729,15.9405204 33.1851852,15.9405204 C37.4269006,15.9405204 41.4191033,17.9330855 44.4132554,20.9219331 L55.8908382,9.71375465 C49.9025341,3.73605948 41.9181287,1.1060958e-15 32.9356725,1.1060958e-15 C14.7212476,1.1060958e-15 0,14.9442379 0,33.3754647 C0,51.8066914 14.7212476,67 32.6861598,67 C41.668616,67 49.9025341,63.2639405 55.6413255,57.2862454 L44.1637427,46.0780669 C41.4191033,49.0669145 37.4269006,51.0594796 33.1851852,51.0594796 Z M80.3430799,1.24535316 L48.6549708,32.3791822 L47.6569201,33.3754647 L80.3430799,65.5055762 L91.5711501,54.5464684 L69.3645224,33.3754647 L91.5711501,12.4535316 L80.3430799,1.24535316 Z M167.922027,2.24163569 L146.463938,2.24163569 L146.463938,64.7583643 L168.17154,64.7583643 C187.883041,64.7583643 202.354776,52.802974 202.354776,33.3754647 C202.105263,13.9479554 187.883041,2.24163569 167.922027,2.24163569 L167.922027,2.24163569 Z M167.922027,50.5613383 L162.682261,50.5613383 L162.682261,16.1895911 L167.922027,16.1895911 C179.39961,16.1895911 185.387914,23.66171 185.387914,33.3754647 C185.387914,42.5910781 178.900585,50.5613383 167.922027,50.5613383 Z M256,16.1895911 L256,2.24163569 L209.590643,2.24163569 L209.590643,64.7583643 L256,64.7583643 L256,50.8104089 L225.808967,50.8104089 L225.808967,40.1003717 L255.251462,40.1003717 L255.251462,25.9033457 L225.808967,25.9033457 L225.808967,16.1895911 L256,16.1895911 Z M106.791423,1.24535316 L95.5633528,12.204461 L117.769981,33.3754647 L95.5633528,54.2973978 L106.791423,65.2565056 L139.477583,33.3754647 L138.479532,32.3791822 L106.791423,1.24535316 L106.791423,1.24535316 Z" id="Shape"></path>
        </g>
    </g>
</svg>