<svg width="180" height="26" viewBox="0 0 180 26" xmlns="http://www.w3.org/2000/svg"><path d="M87.75 4.752l3.53 10.067h.058l3.414-10.067 4.442.02-6.537 16.913c-.465 1.261-1.125 2.173-1.94 2.716-.814.543-1.958.815-3.413.815H83.85v-3.53h3.298c.504-.02.97-.272 1.26-.66.272-.388.408-.815.408-1.28 0-.33-.058-.66-.175-.97l-5.45-14.024h4.558zm-21.259.543a6.81 6.81 0 014.015 4.093 8.955 8.955 0 01.544 3.278 9.349 9.349 0 01-.544 3.259 6.938 6.938 0 01-1.57 2.482 7.006 7.006 0 01-2.445 1.59 9.54 9.54 0 01-6.4 0 7.006 7.006 0 01-2.444-1.59 7.11 7.11 0 01-1.572-2.482 9.368 9.368 0 01-.562-3.259c0-1.125.175-2.23.562-3.278a6.861 6.861 0 014.016-4.093 9.31 9.31 0 016.4 0zm-29.385-.543a9.48 9.48 0 012.56.35 6.863 6.863 0 012.211 1.066 5.468 5.468 0 012.289 4.287h-4.035c-.29-1.765-1.3-2.619-3.064-2.619a2.894 2.894 0 00-1.649.446c-.446.31-.815.699-1.086 1.164a4.98 4.98 0 00-.601 1.571 8.356 8.356 0 00-.175 1.707c0 .563.058 1.106.175 1.649.097.543.29 1.047.562 1.532.252.446.62.834 1.067 1.125.485.31 1.047.446 1.63.427.988 0 1.745-.272 2.288-.834a4 4 0 001.009-2.211h3.976c-.272 1.997-1.047 3.51-2.328 4.558-1.28 1.047-2.91 1.571-4.907 1.571a7.978 7.978 0 01-3.084-.563 6.854 6.854 0 01-3.938-4.015 8.853 8.853 0 01-.562-3.084c0-1.105.155-2.191.504-3.239.31-.95.815-1.843 1.494-2.58a6.991 6.991 0 012.405-1.707 8.106 8.106 0 013.259-.6zM13.966.058v3.783H4.5v5.896h8.088v3.491H4.5v7.294H0V.058h13.966zm62.767 4.694v2.444h.058a5.186 5.186 0 011.823-1.843 4.787 4.787 0 012.425-.6l1.474 3.878a11.39 11.39 0 00-1.397-.155c-1.3 0-2.288.408-2.987 1.203-.698.795-1.047 1.959-1.047 3.491v7.352h-4.655V4.752h4.306zm92.735-.077v2.56h.097a4.888 4.888 0 012.075-1.94 5.825 5.825 0 012.619-.601c1.125 0 2.056.155 2.773.465.68.272 1.261.718 1.707 1.28.427.602.737 1.28.873 1.999.175.853.252 1.726.252 2.599v9.465h-4.228v-8.709c0-1.26-.194-2.211-.601-2.832-.408-.62-1.106-.93-2.115-.93-1.144 0-1.978.348-2.502 1.027-.524.68-.776 1.804-.776 3.375v8.07h-4.228V4.674h4.054zM21.51 4.713c.776 0 1.532.059 2.289.156.737.097 1.454.31 2.114.62.62.291 1.164.737 1.57 1.3.408.562.602 1.28.602 2.192v7.816c0 .64.039 1.3.117 1.94.038.485.174.97.407 1.397h-4.19a7.748 7.748 0 01-.194-.718 4.797 4.797 0 01-.097-.737 5.255 5.255 0 01-2.327 1.416 9.342 9.342 0 01-2.735.407 7.624 7.624 0 01-1.998-.252 4.3 4.3 0 01-1.63-.815 3.838 3.838 0 01-1.086-1.396 4.767 4.767 0 01-.387-1.998 4.66 4.66 0 01.446-2.114c.271-.524.679-.97 1.163-1.32a5.616 5.616 0 011.63-.736c.601-.155 1.222-.291 1.842-.388.621-.097 1.222-.175 1.824-.233a10.866 10.866 0 001.59-.252 2.613 2.613 0 001.106-.504c.29-.233.427-.602.388-.97a2.24 2.24 0 00-.214-1.067 1.45 1.45 0 00-.582-.601 2.143 2.143 0 00-.834-.291 6.116 6.116 0 00-1.028-.078c-.814 0-1.454.175-1.92.524-.465.349-.737.93-.814 1.745H14.43a4.61 4.61 0 01.737-2.405 4.8 4.8 0 011.63-1.551 7.048 7.048 0 012.23-.834 13.308 13.308 0 012.483-.253zM51.71.04v4.694h3.142v3.064h-3.142v7.759c0 .737.136 1.222.369 1.455.252.252.737.368 1.455.368h1.318v3.104h-2.54c-.621 0-1.242-.039-1.863-.136a4.555 4.555 0 01-1.57-.524 2.973 2.973 0 01-1.067-1.125c-.291-.582-.408-1.241-.388-1.9v-9.02h-2.483V4.713h2.483V.04h4.286zM162.68 4.675v15.808h-4.19V4.675h4.19zM155.735 0v20.483h-4.19V0h4.19zm-24.847 4.655a7.298 7.298 0 013.336.737 6.773 6.773 0 012.328 1.998 8.144 8.144 0 011.319 2.851 10.71 10.71 0 01.29 3.337H127.32c.116 1.357.446 2.327 1.067 2.928.62.602 1.513.893 2.677.893a3.717 3.717 0 002.153-.621c.6-.407.97-.853 1.105-1.319h3.627c-.582 1.804-1.474 3.084-2.676 3.86-1.203.776-2.658 1.164-4.365 1.164a8.636 8.636 0 01-3.2-.563 6.337 6.337 0 01-2.405-1.61c-.68-.717-1.183-1.57-1.533-2.502a9.485 9.485 0 01-.543-3.2c0-1.067.175-2.134.543-3.142a7.317 7.317 0 013.996-4.19 7.873 7.873 0 013.123-.62zm12.744.02v3.278h.058c.194-.485.465-.931.795-1.32.33-.407.718-.756 1.164-1.047.426-.29.911-.504 1.396-.679a5.279 5.279 0 011.552-.232c.31 0 .62.058.931.155v3.918a5.383 5.383 0 00-.718-.097c-.271-.039-.543-.039-.795-.039a4.536 4.536 0 00-1.959.388c-.504.233-.95.601-1.3 1.067-.33.465-.581.989-.698 1.552a9.285 9.285 0 00-.213 1.94v6.924h-4.229V4.675h4.016zM114.362 0c.892 0 1.785.078 2.677.252a5.33 5.33 0 012.056.854c.582.388 1.028.93 1.338 1.57.33.757.505 1.591.466 2.406 0 1.028-.233 1.9-.699 2.58a5.041 5.041 0 01-2.075 1.687c1.26.369 2.211 1.009 2.832 1.901.64.97.97 2.114.931 3.278a5.581 5.581 0 01-.601 2.677 5.092 5.092 0 01-1.61 1.842 7.259 7.259 0 01-2.328 1.067c-.873.233-1.784.35-2.677.35h-9.93V0h9.62zM23.955 12.802c-.194.174-.408.29-.66.368a4.392 4.392 0 01-.834.214c-.31.058-.62.116-.95.155-.33.039-.66.077-.99.155a6.97 6.97 0 00-.911.233 2.908 2.908 0 00-.776.388 2.363 2.363 0 00-.543.62c-.109.233-.18.49-.194.753v.198c-.02.33.058.64.194.93.136.253.31.447.543.602.252.155.524.252.815.31.31.059.64.078.95.078.815 0 1.435-.136 1.882-.407.407-.233.756-.563.989-.97.213-.35.33-.737.388-1.145.039-.31.058-.62.077-.93l.02-1.552zM63.29 7.836a3.242 3.242 0 00-1.746.427c-.446.271-.834.64-1.125 1.086-.29.466-.485.99-.601 1.532a9.076 9.076 0 00-.175 1.766c0 .6.059 1.183.175 1.765.097.543.31 1.066.601 1.532.272.446.66.834 1.125 1.086.475.255.995.39 1.52.408h.226a3.48 3.48 0 001.765-.408c.466-.252.854-.64 1.125-1.086.291-.466.485-.99.601-1.532a8.93 8.93 0 00.175-1.765 8.93 8.93 0 00-.175-1.766 4.363 4.363 0 00-.6-1.532 3.537 3.537 0 00-1.126-1.086 3.496 3.496 0 00-1.765-.427zm50.858 3.53h-4.908v5.625h4.81a5.46 5.46 0 001.262-.135 3.008 3.008 0 001.066-.427c.31-.213.563-.485.737-.815.194-.407.291-.873.272-1.319 0-1.047-.291-1.804-.892-2.25-.602-.446-1.377-.679-2.347-.679zm14.993-3.258a3.118 3.118 0 00-1.047.834c-.252.31-.446.66-.543 1.047-.097.33-.155.66-.194.99h6.711c-.175-1.048-.524-1.843-1.028-2.386-.485-.543-1.241-.815-2.25-.815a3.745 3.745 0 00-1.649.33zM113.45 3.472h-4.209v4.79l4.54.02a3.289 3.289 0 001.978-.582c.523-.387.776-1.008.776-1.862a2.504 2.504 0 00-.253-1.183 2.008 2.008 0 00-.679-.717c-.31-.175-.64-.291-.989-.369a7.85 7.85 0 00-1.164-.097zM162.68 0v3.453h-4.19V0h4.19z" fill="#ffffff" fill-rule="nonzero"/></svg>